<svg width="28" height="30" viewBox="0 0 28 30" fill="none" xmlns="http://www.w3.org/2000/svg">
<path d="M8 4.61337L14 8.08003L20 4.61337M8 25.3867V18.4667L2 15M26 15L20 18.4667V25.3867M2.36 8.28003L14 15.0134L25.64 8.28003M14 28.44V15M26 20.3334V9.6667C25.9995 9.19907 25.8761 8.73978 25.6421 8.33492C25.408 7.93005 25.0717 7.59385 24.6667 7.36003L15.3333 2.0267C14.9279 1.79265 14.4681 1.66943 14 1.66943C13.5319 1.66943 13.0721 1.79265 12.6667 2.0267L3.33333 7.36003C2.92835 7.59385 2.59197 7.93005 2.35795 8.33492C2.12392 8.73978 2.00048 9.19907 2 9.6667V20.3334C2.00048 20.801 2.12392 21.2603 2.35795 21.6651C2.59197 22.07 2.92835 22.4062 3.33333 22.64L12.6667 27.9734C13.0721 28.2074 13.5319 28.3306 14 28.3306C14.4681 28.3306 14.9279 28.2074 15.3333 27.9734L24.6667 22.64C25.0717 22.4062 25.408 22.07 25.6421 21.6651C25.8761 21.2603 25.9995 20.801 26 20.3334Z" stroke="#1E1E1E" stroke-width="3" stroke-linecap="round" stroke-linejoin="round"/>
</svg>
